solid patch0
  facet normal -1 -0 -0
    outer loop
       vertex -0.15 0.2 0.14
       vertex -0.15 0.2 -0.06
       vertex -0.15 -0.2 0.14
    endloop
  endfacet
  facet normal -1 0 0
    outer loop
       vertex -0.15 0.2 -0.06
       vertex -0.15 -0.2 -0.06
       vertex -0.15 -0.2 0.14
    endloop
  endfacet
  facet normal 1 -0 0
    outer loop
       vertex 0.15 -0.2 0.14
       vertex 0.15 0.2 -0.06
       vertex 0.15 0.2 0.14
    endloop
  endfacet
  facet normal 1 0 0
    outer loop
       vertex 0.15 -0.2 0.14
       vertex 0.15 -0.2 -0.06
       vertex 0.15 0.2 -0.06
    endloop
  endfacet
  facet normal 0 -1 0
    outer loop
       vertex -0.15 -0.2 -0.06
       vertex 0.15 -0.2 -0.06
       vertex 0.15 -0.2 0.14
    endloop
  endfacet
  facet normal 0 -1 0
    outer loop
       vertex -0.15 -0.2 0.14
       vertex -0.15 -0.2 -0.06
       vertex 0.15 -0.2 0.14
    endloop
  endfacet
  facet normal 0 1 0
    outer loop
       vertex 0.15 0.2 0.14
       vertex 0.15 0.2 -0.06
       vertex -0.15 0.2 -0.06
    endloop
  endfacet
  facet normal 0 1 0
    outer loop
       vertex 0.15 0.2 0.14
       vertex -0.15 0.2 -0.06
       vertex -0.15 0.2 0.14
    endloop
  endfacet
  facet normal 0 0 -1
    outer loop
       vertex -0.15 -0.2 -0.06
       vertex -0.15 0.2 -0.06
       vertex 0.15 0.2 -0.06
    endloop
  endfacet
  facet normal 0 0 -1
    outer loop
       vertex 0.15 -0.2 -0.06
       vertex -0.15 -0.2 -0.06
       vertex 0.15 0.2 -0.06
    endloop
  endfacet
  facet normal 0 0 1
    outer loop
       vertex 0.15 0.2 0.14
       vertex -0.15 0.2 0.14
       vertex -0.15 -0.2 0.14
    endloop
  endfacet
  facet normal 0 0 1
    outer loop
       vertex 0.15 0.2 0.14
       vertex -0.15 -0.2 0.14
       vertex 0.15 -0.2 0.14
    endloop
  endfacet
endsolid patch0
