solid patch0
  facet normal -0.997862 -0.0653613 -0
    outer loop
       vertex -0.035 -0.069 0.02
       vertex -0.035 -0.069 0
       vertex -0.0349487 -0.0697832 0
    endloop
  endfacet
  facet normal -0.997862 -0.0653613 -0
    outer loop
       vertex -0.0349487 -0.0697832 0.02
       vertex -0.035 -0.069 0.02
       vertex -0.0349487 -0.0697832 0
    endloop
  endfacet
  facet normal -0.980786 -0.195085 -0
    outer loop
       vertex -0.0347956 -0.0705529 0.02
       vertex -0.0349487 -0.0697832 0.02
       vertex -0.0347956 -0.0705529 0
    endloop
  endfacet
  facet normal -0.980786 -0.195085 -0
    outer loop
       vertex -0.0349487 -0.0697832 0.02
       vertex -0.0349487 -0.0697832 0
       vertex -0.0347956 -0.0705529 0
    endloop
  endfacet
  facet normal -0.946923 -0.321462 -0
    outer loop
       vertex -0.0345433 -0.0712961 0.02
       vertex -0.0347956 -0.0705529 0.02
       vertex -0.0345433 -0.0712961 0
    endloop
  endfacet
  facet normal -0.896886 -0.442263 0
    outer loop
       vertex -0.0341962 -0.072 0.02
       vertex -0.0345433 -0.0712961 0.02
       vertex -0.0345433 -0.0712961 0
    endloop
  endfacet
  facet normal -0.946923 -0.321462 -0
    outer loop
       vertex -0.0347956 -0.0705529 0.02
       vertex -0.0347956 -0.0705529 0
       vertex -0.0345433 -0.0712961 0
    endloop
  endfacet
  facet normal -0.831443 -0.55561 0
    outer loop
       vertex -0.0337601 -0.0726526 0.02
       vertex -0.0341962 -0.072 0.02
       vertex -0.0341962 -0.072 0
    endloop
  endfacet
  facet normal -0.896886 -0.442263 -0
    outer loop
       vertex -0.0341962 -0.072 0.02
       vertex -0.0345433 -0.0712961 0
       vertex -0.0341962 -0.072 0
    endloop
  endfacet
  facet normal -0.831443 -0.55561 -0
    outer loop
       vertex -0.0337601 -0.0726526 0.02
       vertex -0.0341962 -0.072 0
       vertex -0.0337601 -0.0726526 0
    endloop
  endfacet
  facet normal -0.751783 -0.65941 -0
    outer loop
       vertex -0.0332426 -0.0732426 0.02
       vertex -0.0337601 -0.0726526 0.02
       vertex -0.0332426 -0.0732426 0
    endloop
  endfacet
  facet normal -0.751783 -0.65941 -0
    outer loop
       vertex -0.0337601 -0.0726526 0.02
       vertex -0.0337601 -0.0726526 0
       vertex -0.0332426 -0.0732426 0
    endloop
  endfacet
  facet normal -0.65941 -0.751783 -0
    outer loop
       vertex -0.0326526 -0.0737601 0.02
       vertex -0.0332426 -0.0732426 0.02
       vertex -0.0326526 -0.0737601 0
    endloop
  endfacet
  facet normal -0.555609 -0.831444 0
    outer loop
       vertex -0.032 -0.0741962 0.02
       vertex -0.0326526 -0.0737601 0.02
       vertex -0.0326526 -0.0737601 0
    endloop
  endfacet
  facet normal -0.65941 -0.751783 -0
    outer loop
       vertex -0.0332426 -0.0732426 0.02
       vertex -0.0332426 -0.0732426 0
       vertex -0.0326526 -0.0737601 0
    endloop
  endfacet
  facet normal -0.442263 -0.896886 0
    outer loop
       vertex -0.0312961 -0.0745433 0.02
       vertex -0.032 -0.0741962 0.02
       vertex -0.032 -0.0741962 0
    endloop
  endfacet
  facet normal -0.555609 -0.831444 -0
    outer loop
       vertex -0.032 -0.0741962 0.02
       vertex -0.0326526 -0.0737601 0
       vertex -0.032 -0.0741962 0
    endloop
  endfacet
  facet normal -0.321458 -0.946924 0
    outer loop
       vertex -0.0305529 -0.0747956 0.02
       vertex -0.0312961 -0.0745433 0.02
       vertex -0.0312961 -0.0745433 0
    endloop
  endfacet
  facet normal -0.442263 -0.896886 -0
    outer loop
       vertex -0.0312961 -0.0745433 0.02
       vertex -0.032 -0.0741962 0
       vertex -0.0312961 -0.0745433 0
    endloop
  endfacet
  facet normal -0.321458 -0.946924 -0
    outer loop
       vertex -0.0305529 -0.0747956 0.02
       vertex -0.0312961 -0.0745433 0
       vertex -0.0305529 -0.0747956 0
    endloop
  endfacet
  facet normal -0.19509 -0.980785 -0
    outer loop
       vertex -0.0297832 -0.0749487 0.02
       vertex -0.0305529 -0.0747956 0.02
       vertex -0.0297832 -0.0749487 0
    endloop
  endfacet
  facet normal -0.19509 -0.980785 -0
    outer loop
       vertex -0.0305529 -0.0747956 0.02
       vertex -0.0305529 -0.0747956 0
       vertex -0.0297832 -0.0749487 0
    endloop
  endfacet
  facet normal -0.0653663 -0.997861 -0
    outer loop
       vertex -0.029 -0.075 0.02
       vertex -0.0297832 -0.0749487 0.02
       vertex -0.029 -0.075 0
    endloop
  endfacet
  facet normal -0.0653663 -0.997861 -0
    outer loop
       vertex -0.0297832 -0.0749487 0.02
       vertex -0.0297832 -0.0749487 0
       vertex -0.029 -0.075 0
    endloop
  endfacet
  facet normal 0 -1 0
    outer loop
       vertex -0.029 -0.075 0.02
       vertex -0.029 -0.075 0
       vertex 0.029 -0.075 0.02
    endloop
  endfacet
  facet normal 0 -1 -0
    outer loop
       vertex 0.029 -0.075 0.02
       vertex -0.029 -0.075 0
       vertex 0.029 -0.075 0
    endloop
  endfacet
  facet normal 0.0653663 -0.997861 0
    outer loop
       vertex 0.0297832 -0.0749487 0.02
       vertex 0.029 -0.075 0.02
       vertex 0.029 -0.075 0
    endloop
  endfacet
  facet normal 0.0653663 -0.997861 0
    outer loop
       vertex 0.0297832 -0.0749487 0.02
       vertex 0.029 -0.075 0
       vertex 0.0297832 -0.0749487 0
    endloop
  endfacet
  facet normal 0.19509 -0.980785 0
    outer loop
       vertex 0.0305529 -0.0747956 0.02
       vertex 0.0297832 -0.0749487 0.02
       vertex 0.0305529 -0.0747956 0
    endloop
  endfacet
  facet normal 0.19509 -0.980785 0
    outer loop
       vertex 0.0297832 -0.0749487 0.02
       vertex 0.0297832 -0.0749487 0
       vertex 0.0305529 -0.0747956 0
    endloop
  endfacet
  facet normal 0.321458 -0.946924 0
    outer loop
       vertex 0.0312961 -0.0745433 0.02
       vertex 0.0305529 -0.0747956 0.02
       vertex 0.0312961 -0.0745433 0
    endloop
  endfacet
  facet normal 0.442263 -0.896886 0
    outer loop
       vertex 0.032 -0.0741962 0.02
       vertex 0.0312961 -0.0745433 0.02
       vertex 0.0312961 -0.0745433 0
    endloop
  endfacet
  facet normal 0.321458 -0.946924 0
    outer loop
       vertex 0.0305529 -0.0747956 0.02
       vertex 0.0305529 -0.0747956 0
       vertex 0.0312961 -0.0745433 0
    endloop
  endfacet
  facet normal 0.555609 -0.831444 0
    outer loop
       vertex 0.0326526 -0.0737601 0.02
       vertex 0.032 -0.0741962 0.02
       vertex 0.032 -0.0741962 0
    endloop
  endfacet
  facet normal 0.442263 -0.896886 0
    outer loop
       vertex 0.032 -0.0741962 0.02
       vertex 0.0312961 -0.0745433 0
       vertex 0.032 -0.0741962 0
    endloop
  endfacet
  facet normal 0.65941 -0.751783 0
    outer loop
       vertex 0.0332426 -0.0732426 0.02
       vertex 0.0326526 -0.0737601 0.02
       vertex 0.0326526 -0.0737601 0
    endloop
  endfacet
  facet normal 0.555609 -0.831444 0
    outer loop
       vertex 0.0326526 -0.0737601 0.02
       vertex 0.032 -0.0741962 0
       vertex 0.0326526 -0.0737601 0
    endloop
  endfacet
  facet normal 0.751783 -0.65941 0
    outer loop
       vertex 0.0337601 -0.0726526 0.02
       vertex 0.0332426 -0.0732426 0.02
       vertex 0.0332426 -0.0732426 0
    endloop
  endfacet
  facet normal 0.65941 -0.751783 0
    outer loop
       vertex 0.0332426 -0.0732426 0.02
       vertex 0.0326526 -0.0737601 0
       vertex 0.0332426 -0.0732426 0
    endloop
  endfacet
  facet normal 0.831443 -0.55561 0
    outer loop
       vertex 0.0341962 -0.072 0.02
       vertex 0.0337601 -0.0726526 0.02
       vertex 0.0337601 -0.0726526 0
    endloop
  endfacet
  facet normal 0.751783 -0.65941 0
    outer loop
       vertex 0.0337601 -0.0726526 0.02
       vertex 0.0332426 -0.0732426 0
       vertex 0.0337601 -0.0726526 0
    endloop
  endfacet
  facet normal 0.831443 -0.55561 0
    outer loop
       vertex 0.0341962 -0.072 0.02
       vertex 0.0337601 -0.0726526 0
       vertex 0.0341962 -0.072 0
    endloop
  endfacet
  facet normal 0.896886 -0.442263 0
    outer loop
       vertex 0.0345433 -0.0712961 0.02
       vertex 0.0341962 -0.072 0.02
       vertex 0.0345433 -0.0712961 0
    endloop
  endfacet
  facet normal 0.946923 -0.321462 0
    outer loop
       vertex 0.0347956 -0.0705529 0.02
       vertex 0.0345433 -0.0712961 0.02
       vertex 0.0345433 -0.0712961 0
    endloop
  endfacet
  facet normal 0.896886 -0.442263 0
    outer loop
       vertex 0.0341962 -0.072 0.02
       vertex 0.0341962 -0.072 0
       vertex 0.0345433 -0.0712961 0
    endloop
  endfacet
  facet normal 0.980786 -0.195085 0
    outer loop
       vertex 0.0349487 -0.0697832 0.02
       vertex 0.0347956 -0.0705529 0.02
       vertex 0.0347956 -0.0705529 0
    endloop
  endfacet
  facet normal 0.946923 -0.321462 0
    outer loop
       vertex 0.0347956 -0.0705529 0.02
       vertex 0.0345433 -0.0712961 0
       vertex 0.0347956 -0.0705529 0
    endloop
  endfacet
  facet normal 0.980786 -0.195085 0
    outer loop
       vertex 0.0349487 -0.0697832 0.02
       vertex 0.0347956 -0.0705529 0
       vertex 0.0349487 -0.0697832 0
    endloop
  endfacet
  facet normal 0.997862 -0.0653613 0
    outer loop
       vertex 0.035 -0.069 0.02
       vertex 0.0349487 -0.0697832 0.02
       vertex 0.035 -0.069 0
    endloop
  endfacet
  facet normal 0.997862 -0.0653613 0
    outer loop
       vertex 0.0349487 -0.0697832 0.02
       vertex 0.0349487 -0.0697832 0
       vertex 0.035 -0.069 0
    endloop
  endfacet
  facet normal 1 -0 0
    outer loop
       vertex 0.035 -0.069 0.02
       vertex 0.035 0.069 0
       vertex 0.035 0.069 0.02
    endloop
  endfacet
  facet normal 1 0 0
    outer loop
       vertex 0.035 -0.069 0
       vertex 0.035 0.069 0
       vertex 0.035 -0.069 0.02
    endloop
  endfacet
  facet normal 0.997862 0.0653613 0
    outer loop
       vertex 0.0349487 0.0697832 0.02
       vertex 0.035 0.069 0.02
       vertex 0.035 0.069 0
    endloop
  endfacet
  facet normal 0.997862 0.0653613 0
    outer loop
       vertex 0.0349487 0.0697832 0.02
       vertex 0.035 0.069 0
       vertex 0.0349487 0.0697832 0
    endloop
  endfacet
  facet normal 0.980786 0.195085 0
    outer loop
       vertex 0.0347956 0.0705529 0.02
       vertex 0.0349487 0.0697832 0.02
       vertex 0.0347956 0.0705529 0
    endloop
  endfacet
  facet normal 0.946923 0.321462 0
    outer loop
       vertex 0.0345433 0.0712961 0.02
       vertex 0.0347956 0.0705529 0.02
       vertex 0.0347956 0.0705529 0
    endloop
  endfacet
  facet normal 0.980786 0.195085 0
    outer loop
       vertex 0.0349487 0.0697832 0.02
       vertex 0.0349487 0.0697832 0
       vertex 0.0347956 0.0705529 0
    endloop
  endfacet
  facet normal 0.946923 0.321462 0
    outer loop
       vertex 0.0345433 0.0712961 0.02
       vertex 0.0347956 0.0705529 0
       vertex 0.0345433 0.0712961 0
    endloop
  endfacet
  facet normal 0.896886 0.442263 0
    outer loop
       vertex 0.0341962 0.072 0.02
       vertex 0.0345433 0.0712961 0.02
       vertex 0.0341962 0.072 0
    endloop
  endfacet
  facet normal 0.896886 0.442263 0
    outer loop
       vertex 0.0345433 0.0712961 0.02
       vertex 0.0345433 0.0712961 0
       vertex 0.0341962 0.072 0
    endloop
  endfacet
  facet normal 0.831443 0.55561 0
    outer loop
       vertex 0.0337601 0.0726526 0.02
       vertex 0.0341962 0.072 0.02
       vertex 0.0337601 0.0726526 0
    endloop
  endfacet
  facet normal 0.831443 0.55561 0
    outer loop
       vertex 0.0341962 0.072 0.02
       vertex 0.0341962 0.072 0
       vertex 0.0337601 0.0726526 0
    endloop
  endfacet
  facet normal 0.751783 0.65941 0
    outer loop
       vertex 0.0332426 0.0732426 0.02
       vertex 0.0337601 0.0726526 0.02
       vertex 0.0332426 0.0732426 0
    endloop
  endfacet
  facet normal 0.751783 0.65941 0
    outer loop
       vertex 0.0337601 0.0726526 0.02
       vertex 0.0337601 0.0726526 0
       vertex 0.0332426 0.0732426 0
    endloop
  endfacet
  facet normal 0.65941 0.751783 0
    outer loop
       vertex 0.0326526 0.0737601 0.02
       vertex 0.0332426 0.0732426 0.02
       vertex 0.0326526 0.0737601 0
    endloop
  endfacet
  facet normal 0.65941 0.751783 0
    outer loop
       vertex 0.0332426 0.0732426 0.02
       vertex 0.0332426 0.0732426 0
       vertex 0.0326526 0.0737601 0
    endloop
  endfacet
  facet normal 0.555609 0.831444 0
    outer loop
       vertex 0.032 0.0741962 0.02
       vertex 0.0326526 0.0737601 0.02
       vertex 0.032 0.0741962 0
    endloop
  endfacet
  facet normal 0.555609 0.831444 0
    outer loop
       vertex 0.0326526 0.0737601 0.02
       vertex 0.0326526 0.0737601 0
       vertex 0.032 0.0741962 0
    endloop
  endfacet
  facet normal 0.442263 0.896886 0
    outer loop
       vertex 0.0312961 0.0745433 0.02
       vertex 0.032 0.0741962 0.02
       vertex 0.0312961 0.0745433 0
    endloop
  endfacet
  facet normal 0.442263 0.896886 0
    outer loop
       vertex 0.032 0.0741962 0.02
       vertex 0.032 0.0741962 0
       vertex 0.0312961 0.0745433 0
    endloop
  endfacet
  facet normal 0.321458 0.946924 0
    outer loop
       vertex 0.0305529 0.0747956 0.02
       vertex 0.0312961 0.0745433 0.02
       vertex 0.0305529 0.0747956 0
    endloop
  endfacet
  facet normal 0.321458 0.946924 0
    outer loop
       vertex 0.0312961 0.0745433 0.02
       vertex 0.0312961 0.0745433 0
       vertex 0.0305529 0.0747956 0
    endloop
  endfacet
  facet normal 0.19509 0.980785 0
    outer loop
       vertex 0.0297832 0.0749487 0.02
       vertex 0.0305529 0.0747956 0.02
       vertex 0.0297832 0.0749487 0
    endloop
  endfacet
  facet normal 0.19509 0.980785 0
    outer loop
       vertex 0.0305529 0.0747956 0.02
       vertex 0.0305529 0.0747956 0
       vertex 0.0297832 0.0749487 0
    endloop
  endfacet
  facet normal 0.0653663 0.997861 0
    outer loop
       vertex 0.029 0.075 0.02
       vertex 0.0297832 0.0749487 0.02
       vertex 0.029 0.075 0
    endloop
  endfacet
  facet normal 0.0653663 0.997861 0
    outer loop
       vertex 0.0297832 0.0749487 0.02
       vertex 0.0297832 0.0749487 0
       vertex 0.029 0.075 0
    endloop
  endfacet
  facet normal 0 1 0
    outer loop
       vertex 0.029 0.075 0.02
       vertex -0.029 0.075 0
       vertex -0.029 0.075 0.02
    endloop
  endfacet
  facet normal 0 1 -0
    outer loop
       vertex 0.029 0.075 0
       vertex -0.029 0.075 0
       vertex 0.029 0.075 0.02
    endloop
  endfacet
  facet normal -0.0653663 0.997861 0
    outer loop
       vertex -0.029 0.075 0.02
       vertex -0.029 0.075 0
       vertex -0.0297832 0.0749487 0
    endloop
  endfacet
  facet normal -0.0653663 0.997861 0
    outer loop
       vertex -0.0297832 0.0749487 0.02
       vertex -0.029 0.075 0.02
       vertex -0.0297832 0.0749487 0
    endloop
  endfacet
  facet normal -0.19509 0.980785 0
    outer loop
       vertex -0.0305529 0.0747956 0.02
       vertex -0.0297832 0.0749487 0.02
       vertex -0.0297832 0.0749487 0
    endloop
  endfacet
  facet normal -0.321458 0.946924 0
    outer loop
       vertex -0.0312961 0.0745433 0.02
       vertex -0.0305529 0.0747956 0.02
       vertex -0.0305529 0.0747956 0
    endloop
  endfacet
  facet normal -0.19509 0.980785 0
    outer loop
       vertex -0.0305529 0.0747956 0.02
       vertex -0.0297832 0.0749487 0
       vertex -0.0305529 0.0747956 0
    endloop
  endfacet
  facet normal -0.442263 0.896886 0
    outer loop
       vertex -0.032 0.0741962 0.02
       vertex -0.0312961 0.0745433 0.02
       vertex -0.0312961 0.0745433 0
    endloop
  endfacet
  facet normal -0.321458 0.946924 0
    outer loop
       vertex -0.0312961 0.0745433 0.02
       vertex -0.0305529 0.0747956 0
       vertex -0.0312961 0.0745433 0
    endloop
  endfacet
  facet normal -0.555609 0.831444 0
    outer loop
       vertex -0.0326526 0.0737601 0.02
       vertex -0.032 0.0741962 0.02
       vertex -0.032 0.0741962 0
    endloop
  endfacet
  facet normal -0.442263 0.896886 0
    outer loop
       vertex -0.032 0.0741962 0.02
       vertex -0.0312961 0.0745433 0
       vertex -0.032 0.0741962 0
    endloop
  endfacet
  facet normal -0.555609 0.831444 0
    outer loop
       vertex -0.0326526 0.0737601 0.02
       vertex -0.032 0.0741962 0
       vertex -0.0326526 0.0737601 0
    endloop
  endfacet
  facet normal -0.65941 0.751783 0
    outer loop
       vertex -0.0332426 0.0732426 0.02
       vertex -0.0326526 0.0737601 0.02
       vertex -0.0332426 0.0732426 0
    endloop
  endfacet
  facet normal -0.65941 0.751783 0
    outer loop
       vertex -0.0326526 0.0737601 0.02
       vertex -0.0326526 0.0737601 0
       vertex -0.0332426 0.0732426 0
    endloop
  endfacet
  facet normal -0.751783 0.65941 0
    outer loop
       vertex -0.0337601 0.0726526 0.02
       vertex -0.0332426 0.0732426 0.02
       vertex -0.0337601 0.0726526 0
    endloop
  endfacet
  facet normal -0.831443 0.55561 0
    outer loop
       vertex -0.0341962 0.072 0.02
       vertex -0.0337601 0.0726526 0.02
       vertex -0.0337601 0.0726526 0
    endloop
  endfacet
  facet normal -0.751783 0.65941 0
    outer loop
       vertex -0.0332426 0.0732426 0.02
       vertex -0.0332426 0.0732426 0
       vertex -0.0337601 0.0726526 0
    endloop
  endfacet
  facet normal -0.831443 0.55561 0
    outer loop
       vertex -0.0341962 0.072 0.02
       vertex -0.0337601 0.0726526 0
       vertex -0.0341962 0.072 0
    endloop
  endfacet
  facet normal -0.896886 0.442263 0
    outer loop
       vertex -0.0345433 0.0712961 0.02
       vertex -0.0341962 0.072 0.02
       vertex -0.0345433 0.0712961 0
    endloop
  endfacet
  facet normal -0.896886 0.442263 0
    outer loop
       vertex -0.0341962 0.072 0.02
       vertex -0.0341962 0.072 0
       vertex -0.0345433 0.0712961 0
    endloop
  endfacet
  facet normal -0.946923 0.321462 0
    outer loop
       vertex -0.0347956 0.0705529 0.02
       vertex -0.0345433 0.0712961 0.02
       vertex -0.0347956 0.0705529 0
    endloop
  endfacet
  facet normal -0.980786 0.195085 0
    outer loop
       vertex -0.0349487 0.0697832 0.02
       vertex -0.0347956 0.0705529 0.02
       vertex -0.0347956 0.0705529 0
    endloop
  endfacet
  facet normal -0.946923 0.321462 0
    outer loop
       vertex -0.0345433 0.0712961 0.02
       vertex -0.0345433 0.0712961 0
       vertex -0.0347956 0.0705529 0
    endloop
  endfacet
  facet normal -0.980786 0.195085 0
    outer loop
       vertex -0.0349487 0.0697832 0.02
       vertex -0.0347956 0.0705529 0
       vertex -0.0349487 0.0697832 0
    endloop
  endfacet
  facet normal -0.997862 0.0653613 0
    outer loop
       vertex -0.035 0.069 0.02
       vertex -0.0349487 0.0697832 0.02
       vertex -0.035 0.069 0
    endloop
  endfacet
  facet normal -0.997862 0.0653613 0
    outer loop
       vertex -0.0349487 0.0697832 0.02
       vertex -0.0349487 0.0697832 0
       vertex -0.035 0.069 0
    endloop
  endfacet
  facet normal -1 0 0
    outer loop
       vertex -0.035 0.069 0
       vertex -0.035 -0.069 0
       vertex -0.035 -0.069 0.02
    endloop
  endfacet
  facet normal -1 0 0
    outer loop
       vertex -0.035 0.069 0
       vertex -0.035 -0.069 0.02
       vertex -0.035 0.069 0.02
    endloop
  endfacet
endsolid patch0
