solid patch2
  facet normal 0 0 1
    outer loop
       vertex 0.0312961 0.0745433 0.02
       vertex 0.0305529 0.0747956 0.02
       vertex 0.0297832 0.0749487 0.02
    endloop
  endfacet
  facet normal 0 0 1
    outer loop
       vertex 0.035 0.069 0.02
       vertex 0.0347956 0.0705529 0.02
       vertex 0.029 0.075 0.02
    endloop
  endfacet
  facet normal 0 0 1
    outer loop
       vertex 0.0347956 0.0705529 0.02
       vertex 0.0341962 0.072 0.02
       vertex 0.029 0.075 0.02
    endloop
  endfacet
  facet normal 0 0 1
    outer loop
       vertex 0.0341962 0.072 0.02
       vertex 0.032 0.0741962 0.02
       vertex 0.029 0.075 0.02
    endloop
  endfacet
  facet normal 0 0 1
    outer loop
       vertex 0.0312961 0.0745433 0.02
       vertex 0.0297832 0.0749487 0.02
       vertex 0.029 0.075 0.02
    endloop
  endfacet
  facet normal 0 -0 1
    outer loop
       vertex 0.0332426 -0.0732426 0.02
       vertex 0.0337601 -0.0726526 0.02
       vertex 0.0326526 -0.0737601 0.02
    endloop
  endfacet
  facet normal 0 0 1
    outer loop
       vertex 0.032 0.0741962 0.02
       vertex 0.0312961 0.0745433 0.02
       vertex 0.029 0.075 0.02
    endloop
  endfacet
  facet normal 0 0 1
    outer loop
       vertex 0.035 0.069 0.02
       vertex 0.029 0.075 0.02
       vertex -0.035 0.069 0.02
    endloop
  endfacet
  facet normal 0 0 1
    outer loop
       vertex 0.029 0.075 0.02
       vertex -0.029 0.075 0.02
       vertex -0.035 0.069 0.02
    endloop
  endfacet
  facet normal 0 0 1
    outer loop
       vertex 0.0326526 -0.0737601 0.02
       vertex 0.0337601 -0.0726526 0.02
       vertex 0.0341962 -0.072 0.02
    endloop
  endfacet
  facet normal 0 0 1
    outer loop
       vertex -0.035 -0.069 0.02
       vertex 0.035 0.069 0.02
       vertex -0.035 0.069 0.02
    endloop
  endfacet
  facet normal 0 0 1
    outer loop
       vertex -0.035 0.069 0.02
       vertex -0.029 0.075 0.02
       vertex -0.0305529 0.0747956 0.02
    endloop
  endfacet
  facet normal 0 0 1
    outer loop
       vertex 0.0326526 -0.0737601 0.02
       vertex 0.0341962 -0.072 0.02
       vertex 0.0345433 -0.0712961 0.02
    endloop
  endfacet
  facet normal 0 0 1
    outer loop
       vertex -0.029 0.075 0.02
       vertex -0.0297832 0.0749487 0.02
       vertex -0.0305529 0.0747956 0.02
    endloop
  endfacet
  facet normal 0 -0 1
    outer loop
       vertex 0.0312961 -0.0745433 0.02
       vertex 0.032 -0.0741962 0.02
       vertex 0.0305529 -0.0747956 0.02
    endloop
  endfacet
  facet normal 0 -0 1
    outer loop
       vertex 0.032 -0.0741962 0.02
       vertex 0.0326526 -0.0737601 0.02
       vertex 0.0305529 -0.0747956 0.02
    endloop
  endfacet
  facet normal 0 -0 1
    outer loop
       vertex 0.0326526 -0.0737601 0.02
       vertex 0.0345433 -0.0712961 0.02
       vertex 0.0305529 -0.0747956 0.02
    endloop
  endfacet
  facet normal -0 0 1
    outer loop
       vertex -0.0345433 0.0712961 0.02
       vertex -0.0347956 0.0705529 0.02
       vertex -0.0341962 0.072 0.02
    endloop
  endfacet
  facet normal 0 -0 1
    outer loop
       vertex 0.0305529 -0.0747956 0.02
       vertex 0.0345433 -0.0712961 0.02
       vertex 0.0297832 -0.0749487 0.02
    endloop
  endfacet
  facet normal 0 0 1
    outer loop
       vertex -0.0305529 0.0747956 0.02
       vertex -0.0312961 0.0745433 0.02
       vertex -0.032 0.0741962 0.02
    endloop
  endfacet
  facet normal 0 0 1
    outer loop
       vertex 0.0345433 -0.0712961 0.02
       vertex 0.0347956 -0.0705529 0.02
       vertex 0.0349487 -0.0697832 0.02
    endloop
  endfacet
  facet normal 0 0 1
    outer loop
       vertex 0.0297832 -0.0749487 0.02
       vertex 0.0345433 -0.0712961 0.02
       vertex 0.0349487 -0.0697832 0.02
    endloop
  endfacet
  facet normal 0 0 1
    outer loop
       vertex -0.035 0.069 0.02
       vertex -0.0305529 0.0747956 0.02
       vertex -0.0326526 0.0737601 0.02
    endloop
  endfacet
  facet normal 0 0 1
    outer loop
       vertex -0.0305529 0.0747956 0.02
       vertex -0.032 0.0741962 0.02
       vertex -0.0326526 0.0737601 0.02
    endloop
  endfacet
  facet normal -0 0 1
    outer loop
       vertex -0.0347956 0.0705529 0.02
       vertex -0.0349487 0.0697832 0.02
       vertex -0.0326526 0.0737601 0.02
    endloop
  endfacet
  facet normal -0 0 1
    outer loop
       vertex -0.0341962 0.072 0.02
       vertex -0.0347956 0.0705529 0.02
       vertex -0.0326526 0.0737601 0.02
    endloop
  endfacet
  facet normal -0 0 1
    outer loop
       vertex -0.0349487 0.0697832 0.02
       vertex -0.035 0.069 0.02
       vertex -0.0326526 0.0737601 0.02
    endloop
  endfacet
  facet normal 0 0 1
    outer loop
       vertex 0.029 -0.075 0.02
       vertex 0.0297832 -0.0749487 0.02
       vertex 0.035 -0.069 0.02
    endloop
  endfacet
  facet normal 0 0 1
    outer loop
       vertex -0.0341962 0.072 0.02
       vertex -0.0326526 0.0737601 0.02
       vertex -0.0337601 0.0726526 0.02
    endloop
  endfacet
  facet normal 0 0 1
    outer loop
       vertex 0.0297832 -0.0749487 0.02
       vertex 0.0349487 -0.0697832 0.02
       vertex 0.035 -0.069 0.02
    endloop
  endfacet
  facet normal 0 0 1
    outer loop
       vertex -0.0337601 0.0726526 0.02
       vertex -0.0326526 0.0737601 0.02
       vertex -0.0332426 0.0732426 0.02
    endloop
  endfacet
  facet normal 0 -0 1
    outer loop
       vertex 0.029 -0.075 0.02
       vertex 0.035 -0.069 0.02
       vertex -0.029 -0.075 0.02
    endloop
  endfacet
  facet normal -0 -0 1
    outer loop
       vertex -0.0312961 -0.0745433 0.02
       vertex -0.0305529 -0.0747956 0.02
       vertex -0.032 -0.0741962 0.02
    endloop
  endfacet
  facet normal -0 -0 1
    outer loop
       vertex -0.0305529 -0.0747956 0.02
       vertex -0.0297832 -0.0749487 0.02
       vertex -0.032 -0.0741962 0.02
    endloop
  endfacet
  facet normal -0 -0 1
    outer loop
       vertex -0.0297832 -0.0749487 0.02
       vertex -0.029 -0.075 0.02
       vertex -0.032 -0.0741962 0.02
    endloop
  endfacet
  facet normal -0 -0 1
    outer loop
       vertex -0.0332426 -0.0732426 0.02
       vertex -0.0326526 -0.0737601 0.02
       vertex -0.0337601 -0.0726526 0.02
    endloop
  endfacet
  facet normal -0 -0 1
    outer loop
       vertex -0.0326526 -0.0737601 0.02
       vertex -0.032 -0.0741962 0.02
       vertex -0.0341962 -0.072 0.02
    endloop
  endfacet
  facet normal -0 -0 1
    outer loop
       vertex -0.0337601 -0.0726526 0.02
       vertex -0.0326526 -0.0737601 0.02
       vertex -0.0341962 -0.072 0.02
    endloop
  endfacet
  facet normal -0 -0 1
    outer loop
       vertex -0.0345433 -0.0712961 0.02
       vertex -0.0341962 -0.072 0.02
       vertex -0.0347956 -0.0705529 0.02
    endloop
  endfacet
  facet normal -0 -0 1
    outer loop
       vertex -0.0341962 -0.072 0.02
       vertex -0.032 -0.0741962 0.02
       vertex -0.0349487 -0.0697832 0.02
    endloop
  endfacet
  facet normal -0 -0 1
    outer loop
       vertex -0.0347956 -0.0705529 0.02
       vertex -0.0341962 -0.072 0.02
       vertex -0.0349487 -0.0697832 0.02
    endloop
  endfacet
  facet normal -0 -0 1
    outer loop
       vertex -0.0349487 -0.0697832 0.02
       vertex -0.032 -0.0741962 0.02
       vertex -0.035 -0.069 0.02
    endloop
  endfacet
  facet normal 0 -0 1
    outer loop
       vertex -0.029 -0.075 0.02
       vertex 0.035 -0.069 0.02
       vertex -0.035 -0.069 0.02
    endloop
  endfacet
  facet normal -0 -0 1
    outer loop
       vertex -0.032 -0.0741962 0.02
       vertex -0.029 -0.075 0.02
       vertex -0.035 -0.069 0.02
    endloop
  endfacet
  facet normal 0 0 1
    outer loop
       vertex -0.035 -0.069 0.02
       vertex 0.035 -0.069 0.02
       vertex 0.035 0.069 0.02
    endloop
  endfacet
  facet normal 0 0 1
    outer loop
       vertex 0.035 0.069 0.02
       vertex 0.0349487 0.0697832 0.02
       vertex 0.0347956 0.0705529 0.02
    endloop
  endfacet
  facet normal 0 0 1
    outer loop
       vertex 0.0347956 0.0705529 0.02
       vertex 0.0345433 0.0712961 0.02
       vertex 0.0341962 0.072 0.02
    endloop
  endfacet
  facet normal 0 0 1
    outer loop
       vertex 0.0341962 0.072 0.02
       vertex 0.0337601 0.0726526 0.02
       vertex 0.0332426 0.0732426 0.02
    endloop
  endfacet
  facet normal 0 0 1
    outer loop
       vertex 0.0341962 0.072 0.02
       vertex 0.0332426 0.0732426 0.02
       vertex 0.032 0.0741962 0.02
    endloop
  endfacet
  facet normal 0 0 1
    outer loop
       vertex 0.0332426 0.0732426 0.02
       vertex 0.0326526 0.0737601 0.02
       vertex 0.032 0.0741962 0.02
    endloop
  endfacet
endsolid patch2
